<svg width="85" height="85" viewBox="0 0 85 85" fill="none" xmlns="http://www.w3.org/2000/svg">
<circle cx="42.5" cy="42.5" r="41.5" stroke="white" stroke-width="2"/>
<path fill-rule="evenodd" clip-rule="evenodd" d="M53 32.3052V48.9977C53 50.8114 52.315 52.2477 51.1888 53.2014C50.09 54.1302 48.6725 54.5139 47.3162 54.4564C45.7487 54.3914 44.1113 53.7102 43.0113 52.4402C42.7275 54.7277 43.545 56.2489 43.9163 56.6502L44.7663 57.5664L42.9338 59.2664L42.0837 58.3502C41.0662 57.2527 39.9738 54.6664 40.6725 51.2877C39.6032 51.5128 38.4991 51.5153 37.4287 51.2952C36.3075 51.0577 35.205 50.5464 34.37 49.6877C33.515 48.8089 33 47.6252 33 46.2002C33 44.1452 33.7337 42.6602 35.045 41.5752C36.2575 40.5714 37.9037 39.9689 39.5687 39.4302C39.9587 39.3052 40.3575 39.1802 40.7638 39.0514C43.9375 38.0552 47.5437 36.9227 50.9425 34.0477L53 32.3052ZM44.2013 48.9202C44.7275 47.9552 45.4513 46.9227 46.4288 45.8364L47.2663 44.9077L45.4075 43.2352L44.57 44.1639C43.3325 45.5389 42.43 46.8764 41.79 48.1452C40.85 48.8352 39.3375 49.1439 37.9463 48.8489C37.1925 48.6889 36.5762 48.3702 36.1612 47.9439C35.7662 47.5389 35.5 46.9839 35.5 46.1989C35.5 44.8414 35.9375 44.0802 36.6387 43.4989C37.4375 42.8389 38.6438 42.3564 40.3388 41.8077C40.7075 41.6889 41.095 41.5677 41.4963 41.4414C44.095 40.6302 47.3212 39.6227 50.5 37.5027V48.9977C50.5 50.1414 50.0912 50.8552 49.575 51.2914C49.0312 51.7514 48.2588 51.9939 47.4213 51.9589C45.7613 51.8902 44.2838 50.8039 44.2013 48.9202Z" fill="white"/>
<path fill-rule="evenodd" clip-rule="evenodd" d="M43 66.25L42.455 67.375L42.45 67.3725L42.435 67.365L42.3812 67.3387L42.1812 67.2388C42.0087 67.1512 41.7587 67.0212 41.4425 66.8512C37.6962 64.8242 34.1742 62.4075 30.935 59.6413C25.23 54.7325 19.25 47.4538 19.25 38.405C19.25 34.3388 20.5962 30.4 22.9012 27.455C25.2137 24.5037 28.54 22.5 32.4525 22.5C37.1 22.5 40.6275 25.1338 43 28.8475C45.3737 25.135 48.9 22.5 53.5475 22.5C57.46 22.5 60.7862 24.5038 63.0975 27.4563C65.405 30.4 66.75 34.3375 66.75 38.4062C66.75 47.11 60.76 54.39 55.0737 59.3713C51.6176 62.3744 47.8538 65.004 43.845 67.2162C43.7789 67.252 43.7127 67.2875 43.6462 67.3225L43.5925 67.3512L43.5787 67.3587L43.5725 67.3613L43 66.25ZM24.87 28.9962C22.9262 31.4787 21.75 34.8675 21.75 38.405C21.75 46.3325 27.02 52.9762 32.565 57.7462C35.7703 60.4814 39.2638 62.8596 42.9837 64.8387L43.3512 64.6338C46.9371 62.5913 50.3119 60.1987 53.4262 57.4912C58.9887 52.6162 64.25 45.975 64.25 38.4037C64.25 34.8662 63.0737 31.4787 61.13 28.9962C59.1925 26.5225 56.5425 25 53.5475 25C49.405 25 46.1975 27.7088 44.1225 31.95L43 34.2463L41.8775 31.9525C39.8025 27.7088 36.595 25 32.4525 25C29.4575 25 26.8075 26.5225 24.87 28.9962Z" fill="white"/>
<path d="M43.0001 66.25L43.5726 67.3612L43.0176 67.6462L42.4551 67.375L43.0001 66.25Z" fill="white"/>
</svg>
