<svg width="85" height="85" viewBox="0 0 85 85" fill="none" xmlns="http://www.w3.org/2000/svg">
<path fill-rule="evenodd" clip-rule="evenodd" d="M33.9943 47.2778C33.9943 47.2778 21 51.3306 21 56.1967V64H63.9998V56.1967C63.9998 51.3306 51.0055 47.2778 51.0055 47.2778L43.8723 52.2861C43.4703 52.5683 42.9911 52.7197 42.4999 52.7197C42.0087 52.7197 41.5295 52.5683 41.1275 52.2861L33.9943 47.2778ZM51.3877 49.9295L45.2459 54.2414C44.4416 54.8063 43.4827 55.1094 42.4999 55.1094C41.5171 55.1094 40.5582 54.8063 39.7539 54.2414L33.6121 49.9295C31.8877 50.5338 30.2017 51.2422 28.5632 52.0508C27.0152 52.8224 25.5986 53.6788 24.6024 54.5496C23.5262 55.4896 23.3889 56.0486 23.3889 56.1967V61.6111H61.6109V56.1967C61.6109 56.0486 61.4736 55.4896 60.3974 54.5484C59.4012 53.6788 57.9846 52.8224 56.4354 52.0496C55.0552 51.3694 53.6412 50.7603 52.1987 50.2245C51.9001 50.1122 51.6278 50.0143 51.3877 49.9283V49.9295Z" fill="white"/>
<path d="M49.666 54.4443H56.8327V56.8332H49.666V54.4443Z" fill="white"/>
<path d="M52.0547 59.2218V52.0552H54.4436V59.2218H52.0547Z" fill="white"/>
<path fill-rule="evenodd" clip-rule="evenodd" d="M42.4985 23.3889C39.8229 23.3889 36.4916 24.2704 34.2986 24.9655C33.7492 25.1399 33.4267 25.7515 33.6453 26.3702L36.0628 33.2191C40.3473 31.8575 44.6496 31.8575 48.9341 33.2191L51.3516 26.3702C51.5702 25.7515 51.2477 25.1399 50.6983 24.9667C48.5053 24.2704 45.1728 23.3889 42.4985 23.3889ZM33.576 22.6889C35.7977 21.9842 39.4299 21 42.4985 21C45.567 21 49.1993 21.9842 51.4209 22.6889C53.332 23.2957 54.2446 25.3501 53.6044 27.1645L50.7914 35.1338C50.7385 35.2835 50.6563 35.4211 50.5496 35.5387C50.4428 35.6562 50.3137 35.7513 50.1698 35.8183C50.0259 35.8854 49.8701 35.9231 49.7114 35.9292C49.5528 35.9354 49.3945 35.9098 49.2458 35.854C44.738 34.1639 40.2589 34.1639 35.7511 35.854C35.6024 35.9098 35.4441 35.9354 35.2855 35.9292C35.1268 35.9231 34.971 35.8854 34.8271 35.8183C34.6832 35.7513 34.5541 35.6562 34.4474 35.5387C34.3406 35.4211 34.2584 35.2835 34.2055 35.1338L31.3926 27.1645C30.7523 25.349 31.6649 23.2945 33.5772 22.6889H33.576Z" fill="white"/>
<path d="M38.916 26.9722H46.0827V29.361H38.916V26.9722Z" fill="white"/>
<path d="M41.3047 31.7496V24.583H43.6936V31.7496H41.3047Z" fill="white"/>
<path fill-rule="evenodd" clip-rule="evenodd" d="M49.2482 35.8539C44.7404 34.1638 40.2613 34.1638 35.7534 35.8539C35.6925 35.8769 35.6298 35.8949 35.5659 35.9077C35.2901 36.9673 35.2607 38.0761 35.4801 39.1488C35.6995 40.2216 36.1617 41.2298 36.8314 42.0961C37.501 42.9624 38.3603 43.6637 39.3432 44.1463C40.3261 44.6288 41.4065 44.8797 42.5014 44.8797C43.5964 44.8797 44.6768 44.6288 45.6597 44.1463C46.6426 43.6637 47.5018 42.9624 48.1715 42.0961C48.8411 41.2298 49.3034 40.2216 49.5228 39.1488C49.7421 38.0761 49.7128 36.9673 49.4369 35.9077C49.3727 35.8949 49.3096 35.8769 49.2482 35.8539ZM48.9807 33.2333C44.6663 31.8526 40.3353 31.8526 36.021 33.2333C35.9019 33.0662 35.7417 32.9326 35.5559 32.8455C35.3702 32.7583 35.165 32.7204 34.9604 32.7355C34.7557 32.7506 34.5584 32.8182 34.3875 32.9318C34.2165 33.0454 34.0777 33.201 33.9845 33.3838C33.2432 34.8406 32.888 36.4631 32.9528 38.0964C33.0177 39.7296 33.5003 41.3189 34.3548 42.7123C35.2092 44.1057 36.4067 45.2567 37.8329 46.0551C39.2591 46.8536 40.8663 47.2729 42.5008 47.2729C44.1353 47.2729 45.7425 46.8536 47.1687 46.0551C48.5949 45.2567 49.7925 44.1057 50.6469 42.7123C51.5013 41.3189 51.984 39.7296 52.0488 38.0964C52.1137 36.4631 51.7584 34.8406 51.0172 33.3838C50.9239 33.201 50.7851 33.0454 50.6142 32.9318C50.4432 32.8182 50.2459 32.7506 50.0413 32.7355C49.8366 32.7204 49.6315 32.7583 49.4457 32.8455C49.26 32.9326 49.0998 33.0662 48.9807 33.2333Z" fill="white"/>
<circle cx="42.5" cy="42.5" r="41.5" stroke="white" stroke-width="2"/>
</svg>
