<svg width="85" height="85" viewBox="0 0 85 85" fill="none" xmlns="http://www.w3.org/2000/svg">
<circle cx="42.5" cy="42.5" r="41.5" stroke="white" stroke-width="2"/>
<path d="M38.4559 53.9383C38.5902 53.8132 38.6978 53.6624 38.7725 53.4949C38.8471 53.3273 38.8873 53.1464 38.8905 52.963C38.8938 52.7795 38.86 52.5973 38.7913 52.4272C38.7226 52.2571 38.6203 52.1026 38.4906 51.9729C38.3609 51.8432 38.2064 51.7409 38.0363 51.6722C37.8662 51.6035 37.684 51.5698 37.5006 51.573C37.3171 51.5762 37.1362 51.6164 36.9687 51.6911C36.8011 51.7657 36.6503 51.8734 36.5252 52.0076L32.9224 55.6086C32.5638 55.9667 32.0778 56.1679 31.5709 56.1679C31.0641 56.1679 30.578 55.9667 30.2194 55.6086L29.3488 54.7397C29.0898 54.4984 28.7473 54.3671 28.3934 54.3733C28.0395 54.3795 27.7018 54.5229 27.4516 54.7732C27.2013 55.0235 27.0579 55.3612 27.0517 55.7151C27.0454 56.069 27.1768 56.4115 27.4181 56.6704L28.2869 57.5393C29.1579 58.4102 30.3392 58.8994 31.5709 58.8994C32.8027 58.8994 33.984 58.4102 34.855 57.5393L38.4559 53.9383ZM61.1764 23.8374C56.9179 19.5789 50.002 19.5643 45.7398 23.8192L23.8135 45.7127C19.5477 49.9749 19.5586 56.8981 23.8208 61.1621C28.0793 65.4206 34.997 65.4352 39.2574 61.1803L61.1837 39.2867C65.4495 35.0246 65.4386 28.0995 61.1764 23.8374ZM35.7365 37.6693L47.3281 49.2609L37.3285 59.2478C35.7901 60.7784 33.7072 61.6361 31.5371 61.6327C29.367 61.6293 27.2869 60.765 25.7533 59.2295C24.2168 57.6945 23.3528 55.6121 23.3511 53.4402C23.3494 51.2683 24.2101 49.1846 25.7442 47.6471L35.7365 37.6693ZM59.253 37.3524L49.2607 47.3302L37.6691 35.7386L47.6687 25.7517C49.2074 24.2215 51.2901 23.3641 53.4601 23.3675C55.6301 23.3709 57.7101 24.2349 59.2439 25.7699C60.7804 27.305 61.6444 29.3873 61.6461 31.5593C61.6478 33.7312 60.7871 35.8149 59.253 37.3524Z" fill="white"/>
</svg>
