<svg width="85" height="85" viewBox="0 0 85 85" fill="none" xmlns="http://www.w3.org/2000/svg">
<circle cx="42.5" cy="42.5" r="41.5" stroke="white" stroke-width="2"/>
<path d="M54.6667 19.6665H31.3333C30.4493 19.6665 29.6014 20.0177 28.9763 20.6428C28.3512 21.2679 28 22.1158 28 22.9998V62.9998C28 63.8839 28.3512 64.7317 28.9763 65.3569C29.6014 65.982 30.4493 66.3332 31.3333 66.3332H54.6667C55.5507 66.3332 56.3986 65.982 57.0237 65.3569C57.6488 64.7317 58 63.8839 58 62.9998V22.9998C58 22.1158 57.6488 21.2679 57.0237 20.6428C56.3986 20.0177 55.5507 19.6665 54.6667 19.6665ZM31.3333 22.9998H54.6667V52.9998H31.3333V22.9998ZM31.3333 62.9998V56.3332H54.6667V62.9998H31.3333Z" fill="white"/>
<path d="M41.334 58H44.6673V61.3333H41.334V58Z" fill="white"/>
</svg>
